<?xml version="1.0" encoding="UTF-8"?>
<svg xmlns="http://www.w3.org/2000/svg" viewBox="0 0 240 240" width="240" height="240">
  <style>
    .glass {
      animation: glass-pulse 6s infinite ease-in-out;
    }
    .water-wave {
      animation: water-wave 5s infinite ease-in-out;
    }
    .water-level {
      animation: water-level 15s infinite ease-in-out;
    }
    .water-drop {
      animation: water-drop 3s infinite ease-in-out;
    }
    .water-drop-2 {
      animation: water-drop 3s infinite ease-in-out;
      animation-delay: 0.5s;
    }
    .water-drop-3 {
      animation: water-drop 3s infinite ease-in-out;
      animation-delay: 1s;
    }
    .water-ripple {
      animation: ripple-fade 2s infinite ease-out;
    }
    .water-ripple-2 {
      animation: ripple-fade 2s infinite ease-out;
      animation-delay: 0.7s;
    }
    .brain-pulse {
      animation: brain-glow 5s infinite alternate ease-in-out;
    }
    
    @keyframes glass-pulse {
      0%, 100% { stroke-opacity: 0.7; }
      50% { stroke-opacity: 1; }
    }
    
    @keyframes water-wave {
      0% { transform: translateX(-10px); }
      50% { transform: translateX(10px); }
      100% { transform: translateX(-10px); }
    }
    
    @keyframes water-level {
      0%, 100% { transform: translateY(0); }
      50% { transform: translateY(-20px); }
    }
    
    @keyframes water-drop {
      0%, 100% { transform: translateY(-5px); opacity: 0; }
      50% { transform: translateY(20px); opacity: 1; }
    }
    
    @keyframes ripple-fade {
      0% { transform: scale(0.5); opacity: 1; }
      100% { transform: scale(2); opacity: 0; }
    }
    
    @keyframes brain-glow {
      0% { filter: drop-shadow(0 0 2px rgba(138, 86, 255, 0.3)); }
      100% { filter: drop-shadow(0 0 8px rgba(138, 86, 255, 0.7)); }
    }
  </style>
  
  <!-- Background circle -->
  <circle cx="120" cy="120" r="110" fill="#131313" stroke="#8a56ff" stroke-width="2" stroke-opacity="0.3"/>
  
  <!-- Water glass -->
  <g class="glass">
    <!-- Glass outline -->
    <path d="M90,75 L75,180 C75,190 105,190 105,180 L90,75" fill="none" stroke="#8a56ff" stroke-width="2.5" stroke-linecap="round" />
    
    <!-- Glass shine -->
    <line x1="85" y1="95" x2="83" y2="155" stroke="#8a56ff" stroke-width="1" stroke-opacity="0.7" />
    
    <!-- Base -->
    <line x1="70" y1="180" x2="110" y2="180" stroke="#8a56ff" stroke-width="2" />
  </g>
  
  <!-- Water in glass -->
  <clipPath id="glass-mask">
    <path d="M90,75 L75,180 C75,190 105,190 105,180 L90,75" />
  </clipPath>
  
  <g clip-path="url(#glass-mask)">
    <!-- Water fill -->
    <rect class="water-level" x="70" y="120" width="40" height="70" fill="#8a56ff" fill-opacity="0.3" />
    
    <!-- Water wave -->
    <path class="water-wave" d="M65,120 C75,115 85,125 95,120 C105,115 115,125 125,120" fill="none" stroke="#8a56ff" stroke-width="3" stroke-opacity="0.5" />
  </g>
  
  <!-- Water drops -->
  <g class="water-drop">
    <path d="M150,70 C150,70 145,80 150,85 C155,80 150,70 150,70" fill="#8a56ff" fill-opacity="0.7" />
    <circle class="water-ripple" cx="150" cy="85" r="5" fill="none" stroke="#8a56ff" stroke-width="1" stroke-opacity="0.5" />
  </g>
  
  <g class="water-drop-2">
    <path d="M160,90 C160,90 155,100 160,105 C165,100 160,90 160,90" fill="#8a56ff" fill-opacity="0.7" />
    <circle class="water-ripple-2" cx="160" cy="105" r="5" fill="none" stroke="#8a56ff" stroke-width="1" stroke-opacity="0.5" />
  </g>
  
  <g class="water-drop-3">
    <path d="M140,95 C140,95 135,105 140,110 C145,105 140,95 140,95" fill="#8a56ff" fill-opacity="0.7" />
  </g>
  
  <!-- Brain silhouette -->
  <g class="brain-pulse">
    <path d="M175,140 C195,140 200,115 185,105 C185,95 175,90 165,95 C160,85 145,85 140,95 C130,90 120,95 120,105 C105,105 105,125 115,130 C110,140 115,150 125,150 C130,160 145,160 150,150 C160,155 175,150 175,140Z" fill="#1a1a1a" stroke="#8a56ff" stroke-width="2" stroke-opacity="0.8" />
    
    <!-- Brain details -->
    <path d="M145,95 C150,90 160,95 160,100" fill="none" stroke="#8a56ff" stroke-width="1.5" stroke-opacity="0.7" />
    <path d="M130,95 C135,90 140,93 140,98" fill="none" stroke="#8a56ff" stroke-width="1.5" stroke-opacity="0.7" />
    <path d="M120,105 C125,110 135,110 140,105" fill="none" stroke="#8a56ff" stroke-width="1.5" stroke-opacity="0.7" />
    <path d="M150,105 C155,110 165,110 170,105" fill="none" stroke="#8a56ff" stroke-width="1.5" stroke-opacity="0.7" />
    <path d="M125,130 C135,135 145,135 155,130" fill="none" stroke="#8a56ff" stroke-width="1.5" stroke-opacity="0.7" />
    <path d="M130,145 C140,150 150,150 160,145" fill="none" stroke="#8a56ff" stroke-width="1.5" stroke-opacity="0.7" />
  </g>
  
  <!-- Connection lines -->
  <path d="M115,120 C125,125 135,125 150,120" fill="none" stroke="#8a56ff" stroke-width="1.5" stroke-dasharray="3 2" stroke-opacity="0.6" />
  
  <!-- Hydration text -->
  <text x="120" y="210" font-family="Arial, sans-serif" font-size="16" fill="#8a56ff" text-anchor="middle">Stay Hydrated</text>
</svg>