<?xml version="1.0" encoding="UTF-8"?>
<svg width="80" height="80" viewBox="0 0 80 80" xmlns="http://www.w3.org/2000/svg">
  <defs>
    <!-- Gradient for the brain/AI icon -->
    <linearGradient id="brainGradient" x1="0%" y1="0%" x2="100%" y2="100%">
      <stop offset="0%" style="stop-color:#667eea;stop-opacity:1" />
      <stop offset="50%" style="stop-color:#764ba2;stop-opacity:1" />
      <stop offset="100%" style="stop-color:#f093fb;stop-opacity:1" />
    </linearGradient>
    
    <!-- Shadow filter -->
    <filter id="shadow" x="-20%" y="-20%" width="140%" height="140%">
      <feDropShadow dx="2" dy="2" stdDeviation="3" flood-color="#000000" flood-opacity="0.3"/>
    </filter>
  </defs>
  
  <!-- Background circle for the icon -->
  <circle cx="40" cy="40" r="32" fill="url(#brainGradient)" filter="url(#shadow)"/>
  
  <!-- AI Brain Circuit Pattern -->
  <g transform="translate(40,40)">
    <!-- Central brain node -->
    <circle cx="0" cy="0" r="6" fill="#ffffff" opacity="0.9"/>
    
    <!-- Neural network connections -->
    <g stroke="#ffffff" stroke-width="2" opacity="0.8" fill="none">
      <!-- Top connections -->
      <path d="M 0,-6 Q -8,-12 -15,-8"/>
      <path d="M 0,-6 Q 8,-12 15,-8"/>
      
      <!-- Side connections -->
      <path d="M -6,0 Q -12,-8 -18,-2"/>
      <path d="M 6,0 Q 12,-8 18,-2"/>
      
      <!-- Bottom connections -->
      <path d="M 0,6 Q -8,12 -15,8"/>
      <path d="M 0,6 Q 8,12 15,8"/>
    </g>
    
    <!-- Neural nodes -->
    <circle cx="-15" cy="-8" r="3" fill="#ffffff" opacity="0.9"/>
    <circle cx="15" cy="-8" r="3" fill="#ffffff" opacity="0.9"/>
    <circle cx="-18" cy="-2" r="3" fill="#ffffff" opacity="0.9"/>
    <circle cx="18" cy="-2" r="3" fill="#ffffff" opacity="0.9"/>
    <circle cx="-15" cy="8" r="3" fill="#ffffff" opacity="0.9"/>
    <circle cx="15" cy="8" r="3" fill="#ffffff" opacity="0.9"/>
    
    <!-- Learning pulse animation -->
    <circle cx="0" cy="0" r="8" fill="none" stroke="#ffffff" stroke-width="1" opacity="0.6">
      <animate attributeName="r" values="8;12;8" dur="2s" repeatCount="indefinite"/>
      <animate attributeName="opacity" values="0.6;0.2;0.6" dur="2s" repeatCount="indefinite"/>
    </circle>
  </g>
</svg>