<?xml version="1.0" encoding="UTF-8"?>
<svg width="300" height="80" viewBox="0 0 300 80" xmlns="http://www.w3.org/2000/svg">
  <defs>
    <!-- Gradient for the brain/AI icon -->
    <linearGradient id="brainGradient" x1="0%" y1="0%" x2="100%" y2="100%">
      <stop offset="0%" style="stop-color:#667eea;stop-opacity:1" />
      <stop offset="50%" style="stop-color:#764ba2;stop-opacity:1" />
      <stop offset="100%" style="stop-color:#f093fb;stop-opacity:1" />
    </linearGradient>
    
    <!-- Gradient for text -->
    <linearGradient id="textGradient" x1="0%" y1="0%" x2="100%" y2="0%">
      <stop offset="0%" style="stop-color:#667eea;stop-opacity:1" />
      <stop offset="100%" style="stop-color:#764ba2;stop-opacity:1" />
    </linearGradient>
    
    <!-- Shadow filter -->
    <filter id="shadow" x="-20%" y="-20%" width="140%" height="140%">
      <feDropShadow dx="2" dy="2" stdDeviation="3" flood-color="#000000" flood-opacity="0.3"/>
    </filter>
  </defs>
  
  <!-- Background circle for the icon -->
  <circle cx="40" cy="40" r="32" fill="url(#brainGradient)" filter="url(#shadow)"/>
  
  <!-- AI Brain Circuit Pattern -->
  <g transform="translate(40,40)">
    <!-- Central brain node -->
    <circle cx="0" cy="0" r="6" fill="#ffffff" opacity="0.9"/>
    
    <!-- Neural network connections -->
    <g stroke="#ffffff" stroke-width="2" opacity="0.8" fill="none">
      <!-- Top connections -->
      <path d="M 0,-6 Q -8,-12 -15,-8"/>
      <path d="M 0,-6 Q 8,-12 15,-8"/>
      
      <!-- Side connections -->
      <path d="M -6,0 Q -12,-8 -18,-2"/>
      <path d="M 6,0 Q 12,-8 18,-2"/>
      
      <!-- Bottom connections -->
      <path d="M 0,6 Q -8,12 -15,8"/>
      <path d="M 0,6 Q 8,12 15,8"/>
    </g>
    
    <!-- Neural nodes -->
    <circle cx="-15" cy="-8" r="3" fill="#ffffff" opacity="0.9"/>
    <circle cx="15" cy="-8" r="3" fill="#ffffff" opacity="0.9"/>
    <circle cx="-18" cy="-2" r="3" fill="#ffffff" opacity="0.9"/>
    <circle cx="18" cy="-2" r="3" fill="#ffffff" opacity="0.9"/>
    <circle cx="-15" cy="8" r="3" fill="#ffffff" opacity="0.9"/>
    <circle cx="15" cy="8" r="3" fill="#ffffff" opacity="0.9"/>
    
    <!-- Learning pulse animation -->
    <circle cx="0" cy="0" r="8" fill="none" stroke="#ffffff" stroke-width="1" opacity="0.6">
      <animate attributeName="r" values="8;12;8" dur="2s" repeatCount="indefinite"/>
      <animate attributeName="opacity" values="0.6;0.2;0.6" dur="2s" repeatCount="indefinite"/>
    </circle>
  </g>
  
  <!-- Company Name -->
  <text x="85" y="35" font-family="Arial Black, sans-serif" font-size="24" font-weight="900" fill="url(#textGradient)" filter="url(#shadow)">
    Learnyzer
  </text>
  
  <!-- Tagline -->
  <text x="87" y="52" font-family="Arial, sans-serif" font-size="10" font-weight="600" fill="#6b7280" opacity="0.8">
    AI-Powered Exam Preparation
  </text>
  
  <!-- Decorative elements -->
  <g opacity="0.6">
    <!-- Small circuit lines extending from the main icon -->
    <line x1="72" y1="25" x2="82" y2="20" stroke="#667eea" stroke-width="2"/>
    <line x1="72" y1="55" x2="82" y2="60" stroke="#764ba2" stroke-width="2"/>
    
    <!-- Small dots for tech feel -->
    <circle cx="82" cy="20" r="2" fill="#667eea"/>
    <circle cx="82" cy="60" r="2" fill="#764ba2"/>
  </g>
</svg>
  
  <!-- Digital nodes and connections -->
  <circle cx="250" cy="50" r="15" fill="#47c1d6" />
  <circle cx="250" cy="50" r="7" fill="#0a2a42" />
  
  <circle cx="450" cy="250" r="15" fill="#4af3c0" />
  <circle cx="450" cy="250" r="7" fill="#0a2a42" />
  
  <circle cx="250" cy="450" r="15" fill="#47c1d6" />
  <circle cx="250" cy="450" r="7" fill="#0a2a42" />
  
  <circle cx="50" cy="250" r="15" fill="#4af3c0" />
  <circle cx="50" cy="250" r="7" fill="#0a2a42" />
  
  <!-- Small digital dots around the circle -->
  <circle cx="70" cy="150" r="5" fill="#4af3c0" />
  <circle cx="100" cy="100" r="5" fill="#4af3c0" />
  <circle cx="150" cy="70" r="5" fill="#47c1d6" />
  
  <circle cx="350" cy="70" r="5" fill="#ffffff" />
  <circle cx="400" cy="100" r="5" fill="#ffffff" />
  <circle cx="430" cy="150" r="5" fill="#4af3c0" />
  
  <circle cx="430" cy="350" r="5" fill="#ffffff" />
  <circle cx="400" cy="400" r="5" fill="#4af3c0" />
  <circle cx="350" cy="430" r="5" fill="#47c1d6" />
  
  <circle cx="150" cy="430" r="5" fill="#ffffff" />
  <circle cx="100" cy="400" r="5" fill="#ffffff" />
  <circle cx="70" cy="350" r="5" fill="#47c1d6" />
  
  <!-- Digital accents -->
  <line x1="120" y1="170" x2="135" y2="170" stroke="#47c1d6" stroke-width="3" />
  <line x1="120" y1="180" x2="135" y2="180" stroke="#47c1d6" stroke-width="3" />
  <line x1="120" y1="160" x2="125" y2="160" stroke="#47c1d6" stroke-width="3" />
  
  <line x1="370" y1="170" x2="385" y2="170" stroke="#4af3c0" stroke-width="3" />
  <line x1="370" y1="180" x2="385" y2="180" stroke="#4af3c0" stroke-width="3" />
  <line x1="380" y1="160" x2="385" y2="160" stroke="#4af3c0" stroke-width="3" />
  
  <!-- Vertical dots -->
  <circle cx="160" cy="200" r="3" fill="#ffffff" />
  <circle cx="160" cy="215" r="3" fill="#ffffff" />
  <circle cx="160" cy="230" r="3" fill="#ffffff" />
  <circle cx="160" cy="245" r="3" fill="#ffffff" />
  <circle cx="160" cy="260" r="3" fill="#ffffff" />
  <circle cx="160" cy="275" r="3" fill="#ffffff" />
  <circle cx="160" cy="290" r="3" fill="#ffffff" />
  
  <circle cx="340" cy="200" r="3" fill="#ffffff" />
  <circle cx="340" cy="215" r="3" fill="#ffffff" />
  <circle cx="340" cy="230" r="3" fill="#ffffff" />
  <circle cx="340" cy="245" r="3" fill="#ffffff" />
  <circle cx="340" cy="260" r="3" fill="#ffffff" />
  <circle cx="340" cy="275" r="3" fill="#ffffff" />
  <circle cx="340" cy="290" r="3" fill="#ffffff" />
  
  <!-- Digital connection line -->
  <line x1="340" y1="250" x2="450" y2="250" stroke="#4af3c0" stroke-width="3" />
  
  <!-- Open Book Icon -->
  <g transform="translate(170, 170) scale(1.6)">
    <!-- Book Pages -->
    <path d="M50,80 L50,30 C50,30 65,20 80,30 C95,20 110,30 110,30 L110,80 C110,80 95,70 80,80 C65,70 50,80 50,80 Z" 
          fill="none" stroke="#ffffff" stroke-width="3" />
    
    <!-- Book Spine -->
    <path d="M80,30 L80,80" fill="none" stroke="#ffffff" stroke-width="3" />
    
    <!-- Book Cover with gradient -->
    <path d="M50,80 L50,30 C50,30 65,20 80,30 L80,80 C65,70 50,80 50,80 Z" 
          fill="url(#bookLeftGradient)" />
    
    <path d="M110,80 L110,30 C110,30 95,20 80,30 L80,80 C95,70 110,80 110,80 Z" 
          fill="url(#bookRightGradient)" />
  </g>
  
  <!-- Text "Learnyzer" -->
  <text x="250" y="370" font-family="Arial, sans-serif" font-size="48" font-weight="bold" fill="#ffffff" text-anchor="middle">Learnyzer</text>
  
  <!-- Gradients definitions -->
  <defs>
    <linearGradient id="circleGradient" x1="0%" y1="0%" x2="100%" y2="100%">
      <stop offset="0%" stop-color="#47c1d6" />
      <stop offset="100%" stop-color="#4af3c0" />
    </linearGradient>
    
    <linearGradient id="bookLeftGradient" x1="0%" y1="0%" x2="100%" y2="0%">
      <stop offset="0%" stop-color="#47c1d6" />
      <stop offset="100%" stop-color="#47c1d6" />
    </linearGradient>
    
    <linearGradient id="bookRightGradient" x1="0%" y1="0%" x2="100%" y2="0%">
      <stop offset="0%" stop-color="#47c1d6" />
      <stop offset="100%" stop-color="#4af3c0" />
    </linearGradient>
  </defs>
</svg>