<svg xmlns="http://www.w3.org/2000/svg" viewBox="0 0 200 200">
  <!-- Circular frame -->
  <circle cx="100" cy="100" r="90" fill="none" stroke="#47c1d6" stroke-width="4" />
  <circle cx="100" cy="100" r="75" fill="none" stroke="#4af3c0" stroke-width="2" stroke-dasharray="10 5" />
  
  <!-- Open book icon -->
  <path d="M70,125 L70,75 C70,75 85,65 100,75 C115,65 130,75 130,75 L130,125 C130,125 115,115 100,125 C85,115 70,125 70,125 Z" 
        fill="none" stroke="white" stroke-width="2" />
  <path d="M100,75 L100,125" fill="none" stroke="white" stroke-width="2" />
  <path d="M70,125 L70,75 C70,75 85,65 100,75 L100,125 C85,115 70,125 70,125 Z" fill="#47c1d6" />
  <path d="M130,125 L130,75 C130,75 115,65 100,75 L100,125 C115,115 130,125 130,125 Z" fill="#4af3c0" />
  
  <!-- Connection nodes and dots -->
  <circle cx="100" cy="10" r="6" fill="#47c1d6" />
  <circle cx="190" cy="100" r="6" fill="#4af3c0" />
  <circle cx="100" cy="190" r="6" fill="#47c1d6" />
  <circle cx="10" cy="100" r="6" fill="#4af3c0" />
  
  <!-- Digital elements -->
  <line x1="130" y1="100" x2="185" y2="100" stroke="#4af3c0" stroke-width="2" />
</svg>