<svg xmlns="http://www.w3.org/2000/svg" width="200" height="200" viewBox="0 0 200 200">
  <circle cx="100" cy="100" r="90" fill="#0a2a42" stroke="#47c1d6" stroke-width="8"/>
  <circle cx="100" cy="100" r="70" fill="none" stroke="#4af3c0" stroke-width="4"/>
  <g transform="translate(55, 55)">
    <path d="M10,80 L10,30 C10,30 40,15 45,30 C55,15 80,30 80,30 L80,80 C80,80 55,65 45,80 C40,65 10,80 10,80 Z" 
          fill="none" stroke="white" stroke-width="3"/>
    <path d="M45,30 L45,80" fill="none" stroke="white" stroke-width="2"/>
    <path d="M10,80 L10,30 C10,30 40,15 45,30 L45,80 C40,65 10,80 10,80 Z" fill="#47c1d6"/>
    <path d="M80,80 L80,30 C80,30 55,15 45,30 L45,80 C55,65 80,80 80,80 Z" fill="#4af3c0"/>
  </g>
</svg>