<?xml version="1.0" encoding="UTF-8"?>
<svg width="32" height="32" viewBox="0 0 32 32" xmlns="http://www.w3.org/2000/svg">
  <defs>
    <!-- Gradient for the brain/AI icon -->
    <linearGradient id="brainGradient" x1="0%" y1="0%" x2="100%" y2="100%">
      <stop offset="0%" style="stop-color:#667eea;stop-opacity:1" />
      <stop offset="50%" style="stop-color:#764ba2;stop-opacity:1" />
      <stop offset="100%" style="stop-color:#f093fb;stop-opacity:1" />
    </linearGradient>
  </defs>
  
  <!-- Background circle for the icon -->
  <circle cx="16" cy="16" r="15" fill="url(#brainGradient)"/>
  
  <!-- AI Brain Circuit Pattern -->
  <g transform="translate(16,16)">
    <!-- Central brain node -->
    <circle cx="0" cy="0" r="3" fill="#ffffff" opacity="0.9"/>
    
    <!-- Neural network connections -->
    <g stroke="#ffffff" stroke-width="1" opacity="0.8" fill="none">
      <!-- Top connections -->
      <path d="M 0,-3 Q -4,-6 -7.5,-4"/>
      <path d="M 0,-3 Q 4,-6 7.5,-4"/>
      
      <!-- Side connections -->
      <path d="M -3,0 Q -6,-4 -9,-1"/>
      <path d="M 3,0 Q 6,-4 9,-1"/>
      
      <!-- Bottom connections -->
      <path d="M 0,3 Q -4,6 -7.5,4"/>
      <path d="M 0,3 Q 4,6 7.5,4"/>
    </g>
    
    <!-- Neural nodes -->
    <circle cx="-7.5" cy="-4" r="1.5" fill="#ffffff" opacity="0.9"/>
    <circle cx="7.5" cy="-4" r="1.5" fill="#ffffff" opacity="0.9"/>
    <circle cx="-9" cy="-1" r="1.5" fill="#ffffff" opacity="0.9"/>
    <circle cx="9" cy="-1" r="1.5" fill="#ffffff" opacity="0.9"/>
    <circle cx="-7.5" cy="4" r="1.5" fill="#ffffff" opacity="0.9"/>
    <circle cx="7.5" cy="4" r="1.5" fill="#ffffff" opacity="0.9"/>
  </g>
</svg>