<?xml version="1.0" encoding="UTF-8" standalone="no"?>
<svg width="800" height="500" viewBox="0 0 800 500" xmlns="http://www.w3.org/2000/svg">
  <rect width="800" height="500" fill="#1E1E24"/>
  <rect x="50" y="50" width="700" height="400" rx="10" fill="#2A2A35" stroke="#FFD166" stroke-width="2"/>
  <text x="400" y="100" font-family="sans-serif" font-size="24" fill="#FFFFFF" text-anchor="middle">UPSC Exam Preparation Framework</text>
  <g transform="translate(100, 150)">
    <circle cx="50" cy="50" r="40" fill="#FFD166" opacity="0.2" stroke="#FFD166" stroke-width="2"/>
    <text x="50" y="55" font-family="sans-serif" font-size="14" fill="#FFFFFF" text-anchor="middle">History</text>
    <circle cx="200" cy="50" r="40" fill="#06D6A0" opacity="0.2" stroke="#06D6A0" stroke-width="2"/>
    <text x="200" y="55" font-family="sans-serif" font-size="14" fill="#FFFFFF" text-anchor="middle">Polity</text>
    <circle cx="350" cy="50" r="40" fill="#4DA8FF" opacity="0.2" stroke="#4DA8FF" stroke-width="2"/>
    <text x="350" y="55" font-family="sans-serif" font-size="14" fill="#FFFFFF" text-anchor="middle">Geography</text>
    <circle cx="500" cy="50" r="40" fill="#FF6B6B" opacity="0.2" stroke="#FF6B6B" stroke-width="2"/>
    <text x="500" y="55" font-family="sans-serif" font-size="14" fill="#FFFFFF" text-anchor="middle">Economy</text>
    <line x1="90" y1="50" x2="160" y2="50" stroke="#FFFFFF" stroke-width="1.5"/>
    <line x1="240" y1="50" x2="310" y2="50" stroke="#FFFFFF" stroke-width="1.5"/>
    <line x1="390" y1="50" x2="460" y2="50" stroke="#FFFFFF" stroke-width="1.5"/>
  </g>
  <g transform="translate(100, 250)">
    <rect x="25" y="25" width="150" height="100" rx="5" fill="#1A1A25" stroke="#FFD166" stroke-width="2"/>
    <text x="100" y="50" font-family="sans-serif" font-size="16" fill="#FFFFFF" text-anchor="middle">Key Areas</text>
    <text x="100" y="80" font-family="sans-serif" font-size="12" fill="#DDDDDD" text-anchor="middle">Modern Indian History</text>
    <text x="100" y="100" font-family="sans-serif" font-size="12" fill="#DDDDDD" text-anchor="middle">Indian Constitution</text>
    <text x="100" y="120" font-family="sans-serif" font-size="12" fill="#DDDDDD" text-anchor="middle">Current Affairs</text>
    <rect x="325" y="25" width="250" height="100" rx="5" fill="#1A1A25" stroke="#06D6A0" stroke-width="2"/>
    <text x="450" y="50" font-family="sans-serif" font-size="16" fill="#FFFFFF" text-anchor="middle">Strategic Approach</text>
    <text x="450" y="80" font-family="sans-serif" font-size="12" fill="#DDDDDD" text-anchor="middle">Create interconnected mindmaps</text>
    <text x="450" y="100" font-family="sans-serif" font-size="12" fill="#DDDDDD" text-anchor="middle">Daily newspaper analysis</text>
    <text x="450" y="120" font-family="sans-serif" font-size="12" fill="#DDDDDD" text-anchor="middle">Regular answer writing practice</text>
  </g>
</svg>